<svg id="Layer_1" data-name="Layer 1" xmlns="http://www.w3.org/2000/svg" viewBox="0 0 792 612"><defs><style>.cls-1{fill:#a7a9ac;}.cls-2{fill:#2cb3c4;}.cls-3{fill:#e44f26;}.cls-4{fill:#4e6374;}</style></defs><title>Artboard 8</title><polygon class="cls-1" points="290.15 216.88 328.2 216.88 356.55 345.62 318.49 344.66 290.15 216.88"/><path class="cls-2" d="M327.55,221.56c2.22-5-.47-9.15-6-9.15H299.3c-5.5,0-11.81,4.12-14,9.15L233.09,340c-2.22,5,.47,9.15,6,9.15h22.28c5.5,0,11.81-4.12,14-9.15Z"/><polygon class="cls-3" points="414.26 217.42 375.63 216.22 384.28 318.43 422.84 319.56 414.26 217.42"/><polygon class="cls-3" points="474.31 217.3 435.66 216.19 438.9 343.89 477.84 345.23 474.31 217.3"/><path class="cls-4" d="M473.41,221.38c2.44-4.93-.07-9-5.57-9H445.56c-5.5,0-12,4-14.43,9L385.19,314.3c-2.44,4.93.07,9,5.57,9H413c5.5,0,12-4,14.43-9Z"/><path class="cls-4" d="M534.11,221.56c2.22-5-.47-9.15-6-9.15H505.86c-5.5,0-11.81,4.12-14,9.15L439.65,340c-2.22,5,.47,9.15,6,9.15H467.9c5.5,0,11.81-4.12,14-9.15Z"/><path class="cls-4" d="M413.56,221.56c2.22-5-.47-9.15-6-9.15H385.31c-5.5,0-11.81,4.12-14,9.15L319.1,340c-2.22,5,.47,9.15,6,9.15h22.28c5.5,0,11.81-4.12,14-9.15Z"/></svg>