<svg xmlns="http://www.w3.org/2000/svg" style="display: none;">
  
    <symbol id="icon-social-twitter-outline" viewBox="0 0 512 512">
      <path d="m492 110c-17 7-36 12-56 15 20-12 36-31 43-54-19 11-39 19-61 24-18-19-43-31-71-31-54 0-97 43-97 97 0 8 1 15 3 22-81-4-152-43-200-101-8 14-13 31-13 48 0 34 17 64 43 81-16 0-31-5-44-12 0 0 0 1 0 1 0 47 33 86 78 95-8 2-17 4-26 4-6 0-12-1-18-2 12 38 48 66 91 67-34 26-75 42-121 42-8 0-15-1-23-2 43 28 94 44 148 44 179 0 276-148 276-276 0-4 0-8 0-12 19-14 35-31 48-50z m-58 37l-7 5 1 8c0 4 0 8 0 12 0 30-6 62-17 92-12 31-29 59-50 84-23 26-50 46-81 60-34 16-71 24-112 24-29 0-57-5-84-14 10-2 19-5 29-8 22-8 42-19 60-33l35-28-45-1c-26 0-49-13-64-34 7 0 15-1 22-3l60-20-61-11c-30-6-53-28-62-56 8 2 16 3 24 3 0 0 32 2 56 0-13-6-46-29-46-29-23-15-36-40-36-68 0-6 0-12 2-19 22 23 47 42 75 56 37 19 77 30 119 32l21 1-5-21c-1-6-2-12-2-18 0-45 36-81 81-81 22 0 44 9 59 26l6 6 9-2c4 0 8-1 13-3-1 2-6 6-11 11-5 4-18 17-18 17 0 0 13 4 21 5 8 1 18-1 19-1-3 2-8 6-11 8z"/>
    </symbol>
  
    <symbol id="icon-social-twitter" viewBox="0 0 512 512">
      <path d="m492 110c-17 7-36 12-56 15 20-12 36-31 43-54-19 11-39 19-61 24-18-19-43-31-71-31-54 0-97 43-97 97 0 8 1 15 3 22-81-4-152-43-200-101-8 14-13 31-13 48 0 34 17 64 43 81-16 0-31-5-44-12 0 0 0 1 0 1 0 47 33 86 78 95-8 2-17 4-26 4-6 0-12-1-18-2 12 38 48 66 91 67-34 26-75 42-121 42-8 0-15-1-23-2 43 28 94 44 148 44 179 0 276-148 276-276 0-4 0-8 0-12 19-14 35-31 48-50z"/>
    </symbol>
  
    <symbol id="icon-social-github" viewBox="0 0 512 512">
      <path d="m256 32c-124 0-224 103-224 230 0 101 64 187 153 218 2 0 3 0 4 0 8 0 12-6 12-11 0-6-1-20-1-39-8 1-16 2-22 2-43 0-53-33-53-33-10-27-25-34-25-34-20-14 0-14 1-14 0 0 0 0 0 0 23 2 35 24 35 24 11 19 26 25 39 25 11 0 20-3 26-6 2-15 8-25 14-31-50-6-102-25-102-113 0-25 9-46 23-62-2-6-10-29 2-61 0 0 2 0 5 0 8 0 27 3 57 24 18-5 37-8 56-8 19 0 38 3 56 8 30-21 49-24 57-24 3 0 5 0 5 0 12 32 4 55 2 61 14 16 23 37 23 62 0 88-53 107-102 113 8 7 15 21 15 43 0 30-1 55-1 63 0 5 4 11 12 11 1 0 2 0 4 0 89-31 153-117 153-218 0-127-100-230-224-230z"/>
    </symbol>
  
    <symbol id="icon-social-github-outline" viewBox="0 0 512 512">
      <path d="m256 32c-124 0-224 103-224 230 0 101 64 187 153 218 2 0 3 0 4 0 8 0 12-6 12-11 0-6-1-20-1-39-8 1-16 2-22 2-43 0-53-33-53-33-10-27-25-34-25-34-20-14 0-14 1-14 0 0 0 0 0 0 23 2 35 24 35 24 11 19 26 25 39 25 11 0 20-3 26-6 2-15 8-25 14-31-50-6-102-25-102-113 0-25 9-46 23-62-2-6-10-29 2-61 0 0 2 0 5 0 8 0 27 3 57 24 18-5 37-8 56-8 19 0 38 3 56 8 30-21 49-24 57-24 3 0 5 0 5 0 12 32 4 55 2 61 14 16 23 37 23 62 0 88-53 107-102 113 8 7 15 21 15 43 0 30-1 55-1 63 0 5 4 11 12 11 1 0 2 0 4 0 89-31 153-117 153-218 0-127-100-230-224-230z m-78 416c2 0 4 0 6 0 0 3 0 5 0 8 0 2 0 4 1 6-16-5-31-13-45-23 10 6 23 9 38 9z m11-73c-1 2-1 5-2 7-3 1-8 2-12 2-11 0-19-5-25-17-3-5-7-11-13-16 17 14 36 21 52 24z m190 59c-16 12-33 21-51 28 0-2 0-4 0-6 0-12 0-30 0-51 0-12-2-22-5-30 37-8 92-34 92-125 0-25-7-47-21-66 3-12 5-35-5-63l-3-7-7-2c-2-1-5-1-10-1-12 0-31 4-60 22-17-4-34-6-53-6l0 0c-18 0-36 2-53 6-29-18-48-22-60-22-5 0-8 1-10 1l-7 2-3 8c-10 27-8 50-5 63-14 18-21 40-21 65 0 49 16 80 37 98-8-6-19-12-31-13l-2 0c-13 0-22 6-25 15-5 15 10 25 15 28l0 1 2 0c1 1 10 7 17 25 2 6 6 14 13 22-13-11-25-24-35-38-26-37-40-80-40-126 0-29 6-57 16-84 11-25 26-48 45-67 19-20 42-35 66-46 26-11 53-17 81-17 28 0 55 6 81 17 25 10 47 26 66 45 19 20 34 43 45 68 11 27 16 55 16 84 0 45-14 89-40 126-13 18-28 33-45 46z"/>
    </symbol>
  
    <symbol id="icon-social-codepen" viewBox="0 0 512 512">
      <path d="m241 304c-15-10-31-21-46-31-2-1-3-1-5 0l-39 26c31 21 93 62 93 62l0-53c0-2-2-3-3-4z m-46-63c16-10 31-21 46-31 2-1 3-4 3-6l0-51c0 0-62 41-93 62 13 9 26 18 40 26 1 1 3 0 4 0z m75-32c16 11 32 22 47 32 1 1 3 1 4 0l40-26-93-63 0 54c0 1 1 3 2 3z m-12 21c-1 0-4 0-5 1-4 3-9 6-14 9-8 5-25 17-25 17l39 26c1 1 4 1 6 0l39-26c0 0-34-23-40-27z m-117 7l0 40 30-20z m115-205c-124 0-224 100-224 224 0 124 100 224 224 224 124 0 224-100 224-224 0-124-100-224-224-224z m139 265c0 6-3 10-8 13-41 27-82 55-123 82-6 4-11 4-17 0-41-27-81-54-122-82-6-3-8-7-8-13l0-80c0-6 3-10 8-14 41-27 82-54 122-81 6-4 11-4 17 0 41 27 82 54 124 82 4 3 7 7 7 12z m-79-24c-15 10-30 21-45 31-3 1-3 3-3 6l0 51 93-62-38-26c-3-1-4-1-7 0z m54 4l0-40-30 20z"/>
    </symbol>
  
    <symbol id="icon-social-codepen-outline" viewBox="0 0 512 512">
      <path d="m388 204c-42-28-83-55-124-82-6-4-11-4-17 0-40 27-81 54-122 81-5 4-8 8-8 14l0 80c0 6 2 10 8 13 41 28 81 55 122 82 6 4 11 4 17 0 41-27 82-55 123-82 5-3 8-7 8-13l0-81c0-5-3-9-7-12z m-120-52l93 63-40 26c-1 1-3 1-4 0-15-10-31-21-47-32-1 0-2-2-2-3z m-24 1l0 51c0 2-1 5-3 6-15 10-30 21-46 31-1 0-3 1-4 0-14-8-27-17-40-26 31-21 93-62 93-62z m-103 84l30 20-30 20z m103 124c0 0-62-41-93-62l39-26c2-1 3-1 5 0 15 10 31 21 46 31 1 1 3 2 3 4z m15-78c-2 1-5 1-6 0l-39-26c0 0 17-12 25-17 5-3 10-6 14-9 2-1 4-1 5-1 6 4 40 27 40 27z m9 78l0-51c0-3 0-5 3-6 15-10 30-21 45-31 3-1 4-1 7 0l38 26z m102-84l-30-20 30-20z m-114-213c51 0 100 20 136 56 36 37 56 85 56 136 0 51-20 100-56 136-36 36-85 56-136 56-51 0-99-20-136-56-36-36-56-85-56-136 0-51 20-99 56-136 37-36 85-56 136-56m0-32c-124 0-224 100-224 224 0 124 100 224 224 224 124 0 224-100 224-224 0-124-100-224-224-224z"/>
    </symbol>
  
    <symbol id="icon-social-dribbble" viewBox="0 0 512 512">
      <path d="m256 64c-106 0-192 86-192 192 0 106 86 192 192 192 106 0 192-86 192-192 0-106-86-192-192-192z m0 352c-88 0-159-72-159-160 0-88 71-159 159-159 88 0 160 71 160 159 0 88-72 160-160 160z m50-169c24-2 51-3 78-3-3-25-12-48-27-67-17 15-38 28-64 39 5 10 9 20 13 31z m29-91c-21-18-49-28-79-28-5 0-10 0-15 1 14 18 27 38 38 59 22-9 41-20 56-32z m-129-18c-34 15-61 44-72 79 41 0 80-7 113-17-12-23-26-44-41-62z m177 134c-22 0-46 0-67 2 4 12 8 25 12 38 3 14 7 29 9 43 25-20 42-50 46-83z m-125-16c4-1 9-3 14-4-3-8-7-17-10-24-40 12-85 20-134 21 0 2 0 5 0 7 0 29 10 56 26 78 25-33 61-60 104-78z m25 22c-7 2-13 3-18 6-37 16-68 41-90 71 22 18 50 29 81 29 19 0 36-4 52-11-3-15-6-30-10-46-5-16-10-33-15-49z"/>
    </symbol>
  
    <symbol id="icon-social-dribbble-outline" viewBox="0 0 512 512">
      <path d="m256 64c-106 0-192 86-192 192 0 106 86 192 192 192 106 0 192-86 192-192 0-106-86-192-192-192z m122 89c22 25 35 57 38 92-35-1-76-1-110 2-4-11-8-21-13-31 39-17 68-39 85-63z m-122-57c39 0 74 14 102 37-17 22-45 41-79 55-18-34-40-64-62-87 12-3 25-5 39-5z m-72 18c23 23 44 52 63 86-36 11-77 17-121 17-9 0-17 0-25 0 12-45 42-83 83-103z m-88 134c9 1 19 1 28 1 50-1 97-9 138-21 3 7 7 16 10 24-5 1-10 3-14 4-55 23-98 61-122 106-25-29-40-65-40-106 0-3 0-5 0-8z m160 168c-37 0-71-13-98-34 21-42 59-77 107-98 5-3 11-4 18-6 5 16 10 32 15 49 7 27 12 53 15 79-18 6-37 10-57 10z m87-25c-3-26-8-53-15-79-4-13-8-26-12-38 32-3 69-2 99 0-5 49-33 91-72 117z"/>
    </symbol>
  
    <symbol id="icon-social-linkedin" viewBox="0 0 512 512">
      <path d="m417 64l-320 0c-18 0-33 13-33 30l0 321c0 17 15 33 33 33l320 0c18 0 31-16 31-33l0-321c0-17-13-30-31-30z m-234 320l-55 0 0-171 55 0z m-26-197l0 0c-18 0-29-13-29-29 0-17 12-30 30-30 18 0 29 13 29 30 0 16-11 29-30 29z m227 197l-55 0 0-93c0-23-8-38-28-38-15 0-24 10-28 20-2 4-2 9-2 14l0 97-55 0 0-171 55 0 0 24c8-12 21-28 50-28 36 0 63 24 63 75z"/>
    </symbol>
  
    <symbol id="icon-social-linkedin-outline" viewBox="0 0 512 512">
      <path d="m183 384l0-171-55 0 0 171z m-26-197c19 0 30-13 30-29 0-17-11-30-29-30-18 0-30 13-30 30 0 16 11 29 29 29z m164 22c-29 0-42 16-50 28l0-24-55 0 0 171 55 0 0-97c0-5 0-10 2-14 4-10 13-20 28-20 20 0 28 15 28 38l0 93 55 0 0-100c0-51-27-75-63-75z m96-145l-320 0c-18 0-33 13-33 30l0 321c0 17 15 33 33 33l320 0c18 0 31-16 31-33l0-321c0-17-13-30-31-30z m-3 352c-1 0-313 0-315 0-2 0-3-1-3-3 0-2 0-314 0-315 0-1 1-2 2-2 1 0 315 0 316 0 1 0 2 1 2 2 0 23 0 315 0 316 0 1-1 2-2 2z"/>
    </symbol>
  
</svg>
