<svg xmlns="http://www.w3.org/2000/svg" style="display: none;">
  
    <symbol id="ico-architecture" viewBox="0 0 512 512">
      <path d="m260 0c67 0 131 27 177 75 49 47 76 113 75 181l0-256z m-4 512c-68 1-134-26-181-75-49-47-76-113-75-181-1-68 26-134 75-181 46-48 110-75 177-75l-252 0 0 512 512 0 0-256c1 68-26 134-75 181-47 49-113 76-181 75z m-152-104c39 42 95 65 152 64 57 1 113-22 152-64 42-39 65-95 64-152 1-57-22-113-64-152-39-42-95-65-152-64-57-1-113 22-152 64-42 39-65 95-64 152-1 57 22 113 64 152z m104-280l16 0 0 32 16 0 0-32 16 0 0 16 16 0 0-16 16 0 0 32 16 0 0-32 16 0 0 16 16 0 0-16 16 0 0 32 16 0 0-32 16 0 0 64-176 0z m-80 0l64 0 0 64-64 0z m0 240l16 0 0-16-16 0 0-16 32 0 0-16-32 0 0-16 16 0 0-16-16 0 0-16 32 0 0-16-32 0 0-16 16 0 0-16-16 0 0-16 64 0 0 176-64 0z"/>
    </symbol>
  
    <symbol id="ico-design" viewBox="0 0 512 512">
      <path d="m261 0c66 0 130 27 176 75 49 47 76 113 75 181l0-256z m-5 512c-68 1-134-26-181-75-49-47-76-113-75-181-1-68 26-134 75-181 46-48 110-75 176-75l-251 0 0 512 512 0 0-256c1 68-26 134-75 181-47 49-113 76-181 75z m-152-104c39 42 95 65 152 64 57 1 113-22 152-64 42-39 65-95 64-152 1-57-22-113-64-152-39-42-95-65-152-64-57-1-113 22-152 64-42 39-65 95-64 152-1 57 22 113 64 152z m16-239l256 0 0 192-48 0 0-16 32 0 0-160-224 0 0 48-16 0z m0 80l192 0 0 112-64 0 0-16 48 0 0-80-160 0 0 16-16 0z m0 48l112 0 0 64-112 0z"/>
    </symbol>
  
    <symbol id="ico-integration" viewBox="0 0 512 512">
      <path d="m256 512l256 0 0-256c1 68-26 134-75 181-47 49-113 76-181 75z m-256-512l0 512 256 0c-68 1-134-26-181-75-49-47-76-113-75-181-1-68 26-134 75-181 47-49 113-76 181-75 68-1 134 26 181 75 49 47 76 113 75 181l0-256z m408 104c-39-42-95-65-152-64-57-1-113 22-152 64-42 39-65 95-64 152-1 57 22 113 64 152 39 42 95 65 152 64 57 1 113-22 152-64 42-39 65-95 64-152 1-57-22-113-64-152z m-87 130l-130 194 58-150-58 0 130-194-57 150z"/>
    </symbol>
  
    <symbol id="ico-line" viewBox="0 0 512 512">
      <path d="m0 0l232 0 0 512-232 0z m279 0l233 0 0 512-233 0z"/>
    </symbol>
  
    <symbol id="ico-research" viewBox="0 0 512 512">
      <path d="m160 208c4 0 9-1 12-4 3-3 5-8 4-12 1-4-1-9-4-12-3-3-8-5-12-4-4-1-9 1-12 4-3 3-5 8-4 12-1 4 1 9 4 12 3 3 8 4 12 4z m128 96c44 0 80-36 80-80 0-44-36-80-80-80-44 0-80 36-80 80 44 0 80 36 80 80z m-23-304c65 1 127 28 172 75 49 47 76 113 75 181l0-256z m-9 512c-68 1-134-26-181-75-49-47-76-113-75-181-1-68 26-134 75-181 45-47 107-74 172-75l-247 0 0 512 512 0 0-256c1 68-26 134-75 181-47 49-113 76-181 75z m-152-104c39 42 95 65 152 64 57 1 113-22 152-64 42-39 65-95 64-152 1-57-22-113-64-152-39-42-95-65-152-64-57-1-113 22-152 64-42 39-65 95-64 152-1 57 22 113 64 152z m33-239c6-6 14-9 23-9 9 0 17 3 23 9 6 6 9 14 9 23 0 8-3 17-9 23-6 6-14 9-23 9-9 0-17-3-23-9-6-6-9-14-9-23 0-9 3-17 9-23z m10 84c11-14 27-24 45-27l0-2c0-26 10-50 28-68 18-18 42-28 68-28 25 0 50 10 68 28 18 18 28 42 28 68 0 25-10 50-28 68-18 18-42 28-68 28l-2 0c-7 37-40 64-78 64-44 0-80-36-80-80 0-19 6-37 19-51z m61 115c14 0 28-5 40-14 11-9 19-22 22-37-39-6-69-37-76-76-14 4-27 12-36 23-15 19-18 45-7 67 11 22 33 36 57 36z m2-128c7 31 31 55 62 62-1-34-28-61-62-62z"/>
    </symbol>
  
    <symbol id="ico-code" viewBox="0 0 512 512">
      <path d="m270 344l70-40 0-80-70 40z m-10-344c67 0 131 27 177 75 49 47 76 113 75 181l0-256z m-4 512c-68 1-134-26-181-75-49-47-76-113-75-181-1-68 26-134 75-181 46-48 110-75 177-75l-252 0 0 512 512 0 0-256c1 68-26 134-75 181-47 49-113 76-181 75z m70-312l-70-40-70 40 70 40z m-222 208c39 42 95 65 152 64 57 1 113-22 152-64 42-39 65-95 64-152 1-57-22-113-64-152-39-42-95-65-152-64-57-1-113 22-152 64-42 39-65 95-64 152-1 57 22 113 64 152z m264-88l-112 64-112-64 0-128 112-64 112 64z m-126-56l-70-40 0 80 70 40z"/>
    </symbol>
  
</svg>
